<svg width="100" height="100" viewBox="0 0 100 100" fill="none" xmlns="http://www.w3.org/2000/svg">
<g filter="url(#filter0_d_19_418)">
<rect x="15" y="15" width="70" height="70" rx="10" fill="white"/>
<path fill-rule="evenodd" clip-rule="evenodd" d="M41.75 61.1771C42.075 61.7863 42.4004 62.3352 42.7115 62.8216C39.4063 62.0783 36.5382 60.1798 34.5536 57.5723C35.8634 56.8347 37.541 56.0701 39.5578 55.5106C40.131 57.7588 40.9397 59.6577 41.75 61.1771ZM44.25 59.8437C43.5461 58.524 42.8406 56.8757 42.3323 54.9228C43.4265 54.7604 44.5946 54.6667 45.8335 54.6667C47.0722 54.6667 48.2403 54.7604 49.3344 54.9226C48.8261 56.8757 48.1206 58.524 47.4166 59.8437C46.8522 60.9021 46.2899 61.747 45.8333 62.3652C45.3768 61.747 44.8144 60.9021 44.25 59.8437ZM41.5833 49C41.5833 50.1033 41.6575 51.1505 41.7884 52.1391C43.0508 51.9455 44.4004 51.8333 45.8335 51.8333C47.2664 51.8333 48.616 51.9453 49.8782 52.1391C50.0091 51.1503 50.0833 50.1033 50.0833 49C50.0833 47.8967 50.0091 46.8497 49.8782 45.8609C48.616 46.0545 47.2664 46.1667 45.8335 46.1667C44.4004 46.1667 43.0508 46.0545 41.7884 45.8609C41.6575 46.8495 41.5833 47.8967 41.5833 49ZM39.0085 45.2766C38.844 46.4458 38.75 47.688 38.75 49C38.75 50.312 38.844 51.5542 39.0085 52.7234C36.603 53.3692 34.6111 54.2798 33.0705 55.1561C32.1709 53.2946 31.6666 51.2062 31.6666 49C31.6666 46.7938 32.1709 44.7055 33.0705 42.8439C34.6109 43.72 36.6029 44.6307 39.0085 45.2766ZM42.3323 43.0773C43.4265 43.2397 44.5946 43.3333 45.8335 43.3333C47.0722 43.3333 48.2403 43.2397 49.3344 43.0773C48.8261 41.1244 48.1206 39.4761 47.4166 38.1563C46.8522 37.098 46.2899 36.2529 45.8333 35.6348C45.3768 36.2529 44.8144 37.098 44.25 38.1562C43.5461 39.4761 42.8406 41.1243 42.3323 43.0773ZM52.6581 45.2768C52.8226 46.446 52.9166 47.6882 52.9166 49C52.9166 50.312 52.8226 51.554 52.6581 52.7232C55.0636 53.3692 57.0556 54.2798 58.5962 55.1561C59.4956 53.2944 60 51.206 60 49C60 46.794 59.4956 44.7056 58.5962 42.844C57.0558 43.7201 55.0637 44.6308 52.6581 45.2768ZM57.113 40.4278C55.8031 41.1655 54.1255 41.93 52.109 42.4895C51.5357 40.2413 50.727 38.3423 49.9167 36.8229C49.5916 36.2137 49.2662 35.6649 48.9551 35.1784C52.2604 35.9218 55.1285 37.8203 57.113 40.4278ZM39.5578 42.4895C37.5411 41.9299 35.8636 41.1654 34.5536 40.4277C36.5382 37.8203 39.4063 35.9218 42.7114 35.1784C42.4004 35.6649 42.075 36.2137 41.75 36.8229C40.9397 38.3423 40.131 40.2412 39.5578 42.4895ZM52.109 55.5104C51.5357 57.7588 50.727 59.6577 49.9167 61.1771C49.5916 61.7863 49.2662 62.3352 48.9551 62.8216C52.2604 62.0783 55.1285 60.1796 57.1132 57.5722C55.8032 56.8345 54.1257 56.0701 52.109 55.5104ZM45.8333 66C55.2222 66 62.8333 58.3889 62.8333 49C62.8333 39.6112 55.2222 32 45.8333 32C36.4445 32 28.8333 39.6112 28.8333 49C28.8333 58.3889 36.4445 66 45.8333 66Z" fill="#AD9451"/>
<g filter="url(#filter1_d_19_418)">
<rect x="53.4333" y="50.2666" width="17.7333" height="17.7333" rx="8.86667" fill="white"/>
</g>
<path d="M60.1888 56.6001L57.2333 59.5557L60.1888 62.5112" stroke="#AD9451" stroke-width="2" stroke-miterlimit="10" stroke-linecap="round" stroke-linejoin="round"/>
<path d="M64.4111 56.6001L67.3667 59.5557L64.4111 62.5112" stroke="#AD9451" stroke-width="2" stroke-miterlimit="10" stroke-linecap="round" stroke-linejoin="round"/>
</g>
<defs>
<filter id="filter0_d_19_418" x="0" y="0" width="100" height="100" filterUnits="userSpaceOnUse" color-interpolation-filters="sRGB">
<feFlood flood-opacity="0" result="BackgroundImageFix"/>
<feColorMatrix in="SourceAlpha" type="matrix" values="0 0 0 0 0 0 0 0 0 0 0 0 0 0 0 0 0 0 127 0" result="hardAlpha"/>
<feOffset/>
<feGaussianBlur stdDeviation="7.5"/>
<feComposite in2="hardAlpha" operator="out"/>
<feColorMatrix type="matrix" values="0 0 0 0 0 0 0 0 0 0 0 0 0 0 0 0 0 0 0.08 0"/>
<feBlend mode="normal" in2="BackgroundImageFix" result="effect1_dropShadow_19_418"/>
<feBlend mode="normal" in="SourceGraphic" in2="effect1_dropShadow_19_418" result="shape"/>
</filter>
<filter id="filter1_d_19_418" x="48.4333" y="47.2666" width="27.7333" height="27.7334" filterUnits="userSpaceOnUse" color-interpolation-filters="sRGB">
<feFlood flood-opacity="0" result="BackgroundImageFix"/>
<feColorMatrix in="SourceAlpha" type="matrix" values="0 0 0 0 0 0 0 0 0 0 0 0 0 0 0 0 0 0 127 0" result="hardAlpha"/>
<feOffset dy="2"/>
<feGaussianBlur stdDeviation="2.5"/>
<feComposite in2="hardAlpha" operator="out"/>
<feColorMatrix type="matrix" values="0 0 0 0 0 0 0 0 0 0 0 0 0 0 0 0 0 0 0.1 0"/>
<feBlend mode="normal" in2="BackgroundImageFix" result="effect1_dropShadow_19_418"/>
<feBlend mode="normal" in="SourceGraphic" in2="effect1_dropShadow_19_418" result="shape"/>
</filter>
</defs>
</svg>
