<svg width="100" height="100" viewBox="0 0 100 100" fill="none" xmlns="http://www.w3.org/2000/svg">
<g filter="url(#filter0_d_19_425)">
<rect x="15" y="15" width="70" height="70" rx="10" fill="white"/>
<path d="M45.9688 35L46.0092 37.311C46.0362 38.5344 46.9394 39.5312 48.0314 39.5312H52.1028C53.2217 39.5312 54.125 38.5042 54.125 37.2656V35" stroke="#AD9451" stroke-width="3" stroke-linecap="round" stroke-linejoin="round"/>
<path d="M51.1042 66.625H43.5521C38.2656 66.625 36 63.3625 36 58.4688V42.1563C36 37.2625 38.2656 34 43.5521 34H55.6354C60.9219 34 63.1875 37.2625 63.1875 42.1563V53.575" stroke="#AD9451" stroke-width="3" stroke-miterlimit="10" stroke-linecap="round" stroke-linejoin="round"/>
<g filter="url(#filter1_d_19_425)">
<rect x="50.6" y="53.2666" width="17.7333" height="17.7333" rx="8.86667" fill="white" shape-rendering="crispEdges"/>
<path d="M57.3555 59.6001L54.4 62.5557L57.3555 65.5112" stroke="#AD9451" stroke-width="2" stroke-miterlimit="10" stroke-linecap="round" stroke-linejoin="round"/>
<path d="M61.5778 59.6001L64.5333 62.5557L61.5778 65.5112" stroke="#AD9451" stroke-width="2" stroke-miterlimit="10" stroke-linecap="round" stroke-linejoin="round"/>
</g>
</g>
<defs>
<filter id="filter0_d_19_425" x="0" y="0" width="100" height="100" filterUnits="userSpaceOnUse" color-interpolation-filters="sRGB">
<feFlood flood-opacity="0" result="BackgroundImageFix"/>
<feColorMatrix in="SourceAlpha" type="matrix" values="0 0 0 0 0 0 0 0 0 0 0 0 0 0 0 0 0 0 127 0" result="hardAlpha"/>
<feOffset/>
<feGaussianBlur stdDeviation="7.5"/>
<feComposite in2="hardAlpha" operator="out"/>
<feColorMatrix type="matrix" values="0 0 0 0 0 0 0 0 0 0 0 0 0 0 0 0 0 0 0.08 0"/>
<feBlend mode="normal" in2="BackgroundImageFix" result="effect1_dropShadow_19_425"/>
<feBlend mode="normal" in="SourceGraphic" in2="effect1_dropShadow_19_425" result="shape"/>
</filter>
<filter id="filter1_d_19_425" x="45.6" y="50.2666" width="27.7333" height="27.7334" filterUnits="userSpaceOnUse" color-interpolation-filters="sRGB">
<feFlood flood-opacity="0" result="BackgroundImageFix"/>
<feColorMatrix in="SourceAlpha" type="matrix" values="0 0 0 0 0 0 0 0 0 0 0 0 0 0 0 0 0 0 127 0" result="hardAlpha"/>
<feOffset dy="2"/>
<feGaussianBlur stdDeviation="2.5"/>
<feComposite in2="hardAlpha" operator="out"/>
<feColorMatrix type="matrix" values="0 0 0 0 0 0 0 0 0 0 0 0 0 0 0 0 0 0 0.1 0"/>
<feBlend mode="normal" in2="BackgroundImageFix" result="effect1_dropShadow_19_425"/>
<feBlend mode="normal" in="SourceGraphic" in2="effect1_dropShadow_19_425" result="shape"/>
</filter>
</defs>
</svg>
